<svg xmlns="http://www.w3.org/2000/svg" width="119" height="44" viewBox="0 0 119 44" fill="none">
    <path d="M99.3846 0.854492H102.023V8.6109H114.792V11.0908H102.023V21.0634C102.023 22.1187 102.023 22.9101 102.023 23.4378C102.058 23.9303 102.164 24.581 102.339 25.3901C102.551 26.1991 102.832 26.7971 103.184 27.1841C103.535 27.5358 104.081 27.87 104.819 28.1866C105.558 28.5032 106.455 28.6615 107.51 28.6615C109.938 28.6615 111.156 28.3801 115.518 26.5509L116.468 28.9253C112.035 30.9304 110.588 31.2997 107.774 31.2997C104.995 31.2997 102.814 30.5083 101.231 28.9253C100.387 28.0811 99.8595 27.1137 99.6485 26.0233C99.4726 24.8976 99.3846 23.2443 99.3846 21.0634V11.0908H95.7966V8.6109H99.3846V0.854492Z" fill="#464646"/>
    <path d="M68.0776 7.87249H76.8366V13.149C77.716 12.2696 78.4019 11.6012 78.8944 11.1439C79.422 10.6866 80.1959 10.0886 81.216 9.34991C82.2362 8.57602 83.2739 8.0132 84.3292 7.66144C85.4196 7.30967 86.5629 7.13379 87.7589 7.13379C88.779 7.13379 89.6936 7.30967 90.5026 7.66144C91.3469 7.97802 91.9625 8.3122 92.3494 8.66397C92.7363 8.98055 93.176 9.43785 93.6685 10.0358L90.872 12.0937C90.7313 11.953 90.6609 11.8298 90.6609 11.7243C90.3795 11.3022 90.1509 11.0032 89.975 10.8273C89.8343 10.6163 89.5177 10.3876 89.0252 10.1414C88.5327 9.89514 87.9699 9.77202 87.3368 9.77202C86.2815 9.77202 85.2086 10.0007 84.1181 10.458C83.0276 10.9153 81.9723 11.5836 80.9522 12.463C79.9321 13.3424 79.1758 14.046 78.6833 14.5736C78.1909 15.0661 77.5753 15.7168 76.8366 16.5259V28.0814H86.8619V30.5613H67.6555V28.0814H74.1983V10.3524H68.0776V7.87249Z" fill="#464646"/>
    <path d="M39.9482 19.0588C39.9482 15.6819 41.1091 12.7974 43.4307 10.4054C45.7524 8.01338 48.9534 6.81738 53.0339 6.81738C57.1847 6.81738 60.4034 8.03097 62.6898 10.4581C64.9763 12.8853 66.1195 15.7522 66.1195 19.0588C66.1195 22.3654 64.9763 25.2323 62.6898 27.6594C60.4034 30.0866 57.1847 31.3002 53.0339 31.3002C48.9534 31.3002 45.7524 30.1042 43.4307 27.7122C41.1091 25.285 39.9482 22.4006 39.9482 19.0588ZM45.5413 12.3049C43.7121 14.1693 42.7975 16.4206 42.7975 19.0588C42.7975 21.697 43.7121 23.9659 45.5413 25.8654C47.3705 27.7298 49.868 28.662 53.0339 28.662C56.2349 28.662 58.7325 27.7122 60.5265 25.8127C62.3557 23.9131 63.2702 21.6618 63.2702 19.0588C63.2702 16.4206 62.3557 14.1693 60.5265 12.3049C58.7325 10.4054 56.2349 9.45562 53.0339 9.45562C49.868 9.45562 47.3705 10.4054 45.5413 12.3049Z" fill="#464646"/>
    <path d="M8.47119 7.87246H15.4361V11.6188H15.5417C17.7226 8.66394 20.7478 7.18652 24.6172 7.18652C28.0645 7.18652 30.8786 8.36493 33.0595 10.7218C35.2757 13.0786 36.3837 15.8399 36.3837 19.0058C36.3837 22.4179 35.1877 25.2672 32.7957 27.5537C30.4037 29.805 27.7127 30.9306 24.7227 30.9306C21.0292 30.9306 17.9688 29.418 15.5417 26.3929H15.4361V41.4433H118.222V44H8.47119V41.4433H12.7979V10.3524H8.47119V7.87246ZM15.2251 18.8475C15.2251 21.732 16.21 24.0361 18.1799 25.7597C20.1498 27.4482 22.2955 28.2924 24.6172 28.2924C27.0444 28.2924 29.1374 27.3954 30.8962 25.6014C32.655 23.8074 33.5344 21.5913 33.5344 18.9531C33.5344 16.5611 32.743 14.4505 31.16 12.6213C29.6122 10.7569 27.4489 9.82476 24.67 9.82476C21.9614 9.82476 19.7101 10.7218 17.9161 12.5158C16.1221 14.2746 15.2251 16.3852 15.2251 18.8475Z" fill="#464646"/>
    <circle cx="2" cy="13" r="2" fill="#464646"/>
    <circle cx="2" cy="27" r="2" fill="#464646"/>
  </svg>