<svg width="99" height="20" viewBox="0 0 99 20" fill="none" xmlns="http://www.w3.org/2000/svg">
  <rect x="2.33317" y="7.58561" width="18.6667" height="10" rx="5" stroke="black" stroke-opacity="0.8" stroke-width="3.33333"/>
  <path d="M92.5206 5.53125C93.7489 5.53125 94.7993 5.76559 95.6721 6.23427C96.5609 6.70295 97.2478 7.38174 97.7326 8.27061C98.2175 9.15949 98.4599 10.2504 98.4599 11.5433V13.2887H89.9267C89.959 14.3069 90.258 15.1069 90.8236 15.6887C91.4054 16.2705 92.2054 16.5614 93.2236 16.5614C94.0802 16.5614 94.8559 16.4806 95.5509 16.319C96.2458 16.1412 96.965 15.8746 97.7084 15.519V18.3069C97.0619 18.6301 96.3751 18.8644 95.6478 19.0099C94.9367 19.1715 94.0721 19.2523 93.0539 19.2523C91.7287 19.2523 90.557 19.0099 89.5388 18.525C88.5206 18.024 87.7206 17.2725 87.1388 16.2705C86.557 15.2685 86.2661 14.0079 86.2661 12.4887C86.2661 10.9372 86.5247 9.65242 87.0419 8.63424C87.5752 7.59991 88.3105 6.82417 89.2479 6.307C90.1853 5.78983 91.2762 5.53125 92.5206 5.53125ZM92.5448 8.10092C91.8499 8.10092 91.2681 8.32718 90.7994 8.7797C90.3469 9.23222 90.0802 9.93524 89.9994 10.8888H95.066C95.066 10.3554 94.969 9.87867 94.7751 9.45848C94.5973 9.03828 94.3226 8.70697 93.9509 8.46455C93.5792 8.22213 93.1105 8.10092 92.5448 8.10092Z" fill="black" fill-opacity="0.8"/>
  <path d="M84.5042 19.01H80.8921V0.585938H84.5042V19.01Z" fill="black" fill-opacity="0.8"/>
  <path d="M77.1683 16.3668C77.5723 16.3668 77.9602 16.3264 78.3319 16.2456C78.7036 16.1648 79.0753 16.0679 79.447 15.9547V18.6456C79.0592 18.8072 78.5743 18.9446 77.9925 19.0577C77.4269 19.187 76.8047 19.2517 76.1259 19.2517C75.334 19.2517 74.6229 19.1224 73.9926 18.8638C73.3784 18.6052 72.8855 18.1608 72.5138 17.5305C72.1582 16.884 71.9805 15.9951 71.9805 14.8638V8.48815H70.2593V6.96089L72.2471 5.74878L73.2895 2.96094H75.5926V5.77303H79.3016V8.48815H75.5926V14.8638C75.5926 15.3648 75.738 15.7446 76.0289 16.0032C76.3198 16.2456 76.6996 16.3668 77.1683 16.3668Z" fill="black" fill-opacity="0.8"/>
  <path d="M69.031 5.77376V19.01H65.4189V5.77376H69.031ZM67.2371 0.585938C67.7704 0.585938 68.231 0.715229 68.6189 0.973812C69.0067 1.21623 69.2007 1.67683 69.2007 2.35561C69.2007 3.01823 69.0067 3.47883 68.6189 3.73742C68.231 3.996 67.7704 4.12529 67.2371 4.12529C66.6876 4.12529 66.2189 3.996 65.831 3.73742C65.4593 3.47883 65.2734 3.01823 65.2734 2.35561C65.2734 1.67683 65.4593 1.21623 65.831 0.973812C66.2189 0.715229 66.6876 0.585938 67.2371 0.585938Z" fill="black" fill-opacity="0.8"/>
  <path d="M61.6951 16.3668C62.0992 16.3668 62.4871 16.3264 62.8588 16.2456C63.2305 16.1648 63.6022 16.0679 63.9739 15.9547V18.6456C63.586 18.8072 63.1012 18.9446 62.5194 19.0577C61.9537 19.187 61.3315 19.2517 60.6527 19.2517C59.8608 19.2517 59.1497 19.1224 58.5194 18.8638C57.9053 18.6052 57.4124 18.1608 57.0407 17.5305C56.6851 16.884 56.5073 15.9951 56.5073 14.8638V8.48815H54.7861V6.96089L56.774 5.74878L57.8164 2.96094H60.1194V5.77303H63.8285V8.48815H60.1194V14.8638C60.1194 15.3648 60.2649 15.7446 60.5558 16.0032C60.8467 16.2456 61.2265 16.3668 61.6951 16.3668Z" fill="black" fill-opacity="0.8"/>
  <path d="M48.9145 5.53125C50.3367 5.53125 51.4761 5.91912 52.3326 6.69487C53.1892 7.45446 53.6175 8.68273 53.6175 10.3797V19.0099H50.0054V11.2766C50.0054 10.3231 49.8357 9.61201 49.4963 9.14333C49.1569 8.65849 48.6155 8.41607 47.8721 8.41607C46.7731 8.41607 46.0216 8.79586 45.6175 9.55545C45.2135 10.2989 45.0115 11.3736 45.0115 12.7797V19.0099H41.3994V5.77367H44.163L44.6479 7.47062H44.8418C45.1327 7.0181 45.4883 6.65447 45.9085 6.37973C46.3286 6.08882 46.7973 5.87872 47.3145 5.74943C47.8317 5.60398 48.365 5.53125 48.9145 5.53125Z" fill="black" fill-opacity="0.8"/>
  <path d="M39.551 5.77393V19.0101H36.7874L36.3026 17.3132H36.1087C35.8339 17.7657 35.4784 18.1374 35.042 18.4283C34.6218 18.7031 34.1531 18.9051 33.636 19.0344C33.1188 19.1798 32.5855 19.2526 32.036 19.2526C31.0986 19.2526 30.2744 19.0829 29.5633 18.7435C28.8522 18.4041 28.3027 17.8788 27.9148 17.1677C27.5269 16.4566 27.333 15.5354 27.333 14.4041V5.77393H30.9451V13.5072C30.9451 14.4445 31.1148 15.1556 31.4542 15.6405C31.7936 16.1253 32.335 16.3677 33.0784 16.3677C33.8218 16.3677 34.3955 16.198 34.7996 15.8587C35.2198 15.5193 35.5107 15.0263 35.6723 14.3799C35.8501 13.7334 35.939 12.9415 35.939 12.0042V5.77393H39.551Z" fill="black" fill-opacity="0.8"/>
  </svg>
  