<svg width="147" height="28" viewBox="0 0 147 28" fill="none" xmlns="http://www.w3.org/2000/svg">
  <rect x="2.5" y="10.501" width="28" height="15" rx="7.5" stroke="black" stroke-opacity="0.8" stroke-width="5"/>
  <path d="M137.781 7.41797C139.624 7.41797 141.199 7.76948 142.508 8.4725C143.842 9.17553 144.872 10.1937 145.599 11.527C146.326 12.8603 146.69 14.4967 146.69 16.436V19.0542H133.89C133.939 20.5815 134.387 21.7814 135.236 22.6542C136.108 23.5269 137.308 23.9632 138.836 23.9632C140.12 23.9632 141.284 23.842 142.327 23.5996C143.369 23.3329 144.448 22.9329 145.563 22.3996V26.5814C144.593 27.0662 143.563 27.4177 142.472 27.6359C141.405 27.8783 140.108 27.9995 138.581 27.9995C136.593 27.9995 134.836 27.6359 133.308 26.9087C131.781 26.1571 130.581 25.0299 129.708 23.5269C128.836 22.0239 128.399 20.133 128.399 17.8542C128.399 15.527 128.787 13.5997 129.563 12.0725C130.363 10.521 131.466 9.35734 132.872 8.58159C134.278 7.80585 135.914 7.41797 137.781 7.41797ZM137.817 11.2725C136.775 11.2725 135.902 11.6119 135.199 12.2906C134.521 12.9694 134.121 14.024 133.999 15.4542H141.599C141.599 14.6542 141.454 13.9391 141.163 13.3088C140.896 12.6785 140.484 12.1816 139.927 11.8179C139.369 11.4543 138.666 11.2725 137.817 11.2725Z" fill="black" fill-opacity="0.8"/>
  <path d="M125.757 27.636H120.339V0H125.757V27.636Z" fill="black" fill-opacity="0.8"/>
  <path d="M114.753 23.6714C115.359 23.6714 115.941 23.6107 116.499 23.4895C117.056 23.3683 117.614 23.2229 118.171 23.0532V27.0895C117.589 27.3319 116.862 27.538 115.99 27.7077C115.141 27.9016 114.208 27.9986 113.19 27.9986C112.002 27.9986 110.935 27.8046 109.99 27.4168C109.068 27.0289 108.329 26.3622 107.771 25.4168C107.238 24.4471 106.971 23.1138 106.971 21.4168V11.8533H104.39V9.56243L107.371 7.74427L108.935 3.5625H112.39V7.78063H117.953V11.8533H112.39V21.4168C112.39 22.1683 112.608 22.738 113.044 23.1259C113.48 23.4895 114.05 23.6714 114.753 23.6714Z" fill="black" fill-opacity="0.8"/>
  <path d="M102.546 7.78173V27.636H97.1283V7.78173H102.546ZM99.8556 0C100.656 0 101.346 0.193938 101.928 0.581813C102.51 0.945444 102.801 1.63635 102.801 2.65452C102.801 3.64844 102.51 4.33935 101.928 4.72722C101.346 5.11509 100.656 5.30903 99.8556 5.30903C99.0313 5.30903 98.3283 5.11509 97.7465 4.72722C97.1889 4.33935 96.9102 3.64844 96.9102 2.65452C96.9102 1.63635 97.1889 0.945444 97.7465 0.581813C98.3283 0.193938 99.0313 0 99.8556 0Z" fill="black" fill-opacity="0.8"/>
  <path d="M91.5432 23.6714C92.1493 23.6714 92.7311 23.6107 93.2886 23.4895C93.8462 23.3683 94.4038 23.2229 94.9613 23.0532V27.0895C94.3795 27.3319 93.6523 27.538 92.7795 27.7077C91.9311 27.9016 90.9978 27.9986 89.9796 27.9986C88.7917 27.9986 87.7251 27.8046 86.7796 27.4168C85.8584 27.0289 85.119 26.3622 84.5615 25.4168C84.0281 24.4471 83.7615 23.1138 83.7615 21.4168V11.8533H81.1797V9.56243L84.1615 7.74427L85.7251 3.5625H89.1796V7.78063H94.7432V11.8533H89.1796V21.4168C89.1796 22.1683 89.3978 22.738 89.8341 23.1259C90.2705 23.4895 90.8402 23.6714 91.5432 23.6714Z" fill="black" fill-opacity="0.8"/>
  <path d="M72.3712 7.41797C74.5045 7.41797 76.2136 7.99978 77.4984 9.1634C78.7833 10.3028 79.4257 12.1452 79.4257 14.6906V27.6359H74.0076V16.0361C74.0076 14.6058 73.753 13.5391 73.2439 12.8361C72.7349 12.1088 71.9227 11.7452 70.8076 11.7452C69.1591 11.7452 68.0319 12.3149 67.4258 13.4543C66.8198 14.5694 66.5168 16.1815 66.5168 18.2906V27.6359H61.0986V7.7816H65.244L65.9713 10.327H66.2622C66.6986 9.64825 67.2319 9.1028 67.8622 8.69068C68.4925 8.25432 69.1955 7.93917 69.9713 7.74524C70.747 7.52706 71.547 7.41797 72.3712 7.41797Z" fill="black" fill-opacity="0.8"/>
  <path d="M58.3271 7.7832V27.6375H54.1817L53.4544 25.0921H53.1635C52.7514 25.7709 52.218 26.3284 51.5635 26.7648C50.9332 27.1769 50.2302 27.4799 49.4544 27.6739C48.6787 27.8921 47.8787 28.0011 47.0545 28.0011C45.6484 28.0011 44.4121 27.7466 43.3454 27.2375C42.2788 26.7284 41.4545 25.9406 40.8727 24.8739C40.2909 23.8073 40 22.4255 40 20.7285V7.7832H45.4181V19.3831C45.4181 20.7891 45.6727 21.8558 46.1817 22.583C46.6908 23.3103 47.5029 23.6739 48.6181 23.6739C49.7332 23.6739 50.5938 23.4194 51.1999 22.9103C51.8302 22.4012 52.2665 21.6618 52.5089 20.6921C52.7756 19.7225 52.9089 18.5346 52.9089 17.1285V7.7832H58.3271Z" fill="black" fill-opacity="0.8"/>
  </svg>
  