<svg width="147" height="29" viewBox="0 0 147 29" fill="none" xmlns="http://www.w3.org/2000/svg">
  <rect x="2.5" y="10.8784" width="28" height="15" rx="7.5" stroke="black" stroke-opacity="0.8" stroke-width="5"/>
  <path d="M137.781 7.79688C139.624 7.79688 141.199 8.14839 142.508 8.85141C143.842 9.55443 144.872 10.5726 145.599 11.9059C146.326 13.2392 146.69 14.8756 146.69 16.815V19.4331H133.89C133.939 20.9604 134.387 22.1603 135.236 23.0331C136.108 23.9058 137.308 24.3421 138.836 24.3421C140.12 24.3421 141.284 24.2209 142.327 23.9785C143.369 23.7118 144.448 23.3118 145.563 22.7785V26.9603C144.593 27.4451 143.563 27.7966 142.472 28.0148C141.405 28.2572 140.108 28.3785 138.581 28.3785C136.593 28.3785 134.836 28.0148 133.308 27.2876C131.781 26.5361 130.581 25.4088 129.708 23.9058C128.836 22.4028 128.399 20.5119 128.399 18.2331C128.399 15.9059 128.787 13.9786 129.563 12.4514C130.363 10.8999 131.466 9.73625 132.872 8.9605C134.278 8.18475 135.914 7.79688 137.781 7.79688ZM137.817 11.6514C136.775 11.6514 135.902 11.9908 135.199 12.6695C134.521 13.3483 134.121 14.4029 133.999 15.8331H141.599C141.599 15.0332 141.454 14.318 141.163 13.6877C140.896 13.0574 140.484 12.5605 139.927 12.1968C139.369 11.8332 138.666 11.6514 137.817 11.6514Z" fill="black" fill-opacity="0.8"/>
  <path d="M125.756 28.0149H120.338V0.378906H125.756V28.0149Z" fill="black" fill-opacity="0.8"/>
  <path d="M114.753 24.0508C115.359 24.0508 115.941 23.9901 116.499 23.8689C117.056 23.7477 117.614 23.6023 118.171 23.4326V27.4689C117.589 27.7113 116.862 27.9174 115.99 28.0871C115.141 28.281 114.208 28.378 113.19 28.378C112.002 28.378 110.935 28.184 109.99 27.7962C109.068 27.4083 108.329 26.7416 107.771 25.7962C107.238 24.8265 106.971 23.4932 106.971 21.7962V12.2327H104.39V9.94183L107.371 8.12366L108.935 3.94189H112.39V8.16003H117.953V12.2327H112.39V21.7962C112.39 22.5477 112.608 23.1174 113.044 23.5053C113.48 23.8689 114.05 24.0508 114.753 24.0508Z" fill="black" fill-opacity="0.8"/>
  <path d="M102.546 8.16064V28.0149H97.1283V8.16064H102.546ZM99.8556 0.378906C100.656 0.378906 101.346 0.572844 101.928 0.960719C102.51 1.32435 102.801 2.01525 102.801 3.03342C102.801 4.02735 102.51 4.71825 101.928 5.10612C101.346 5.494 100.656 5.68794 99.8556 5.68794C99.0313 5.68794 98.3283 5.494 97.7465 5.10612C97.1889 4.71825 96.9102 4.02735 96.9102 3.03342C96.9102 2.01525 97.1889 1.32435 97.7465 0.960719C98.3283 0.572844 99.0313 0.378906 99.8556 0.378906Z" fill="black" fill-opacity="0.8"/>
  <path d="M91.5432 24.0508C92.1493 24.0508 92.7311 23.9901 93.2886 23.8689C93.8462 23.7477 94.4038 23.6023 94.9613 23.4326V27.4689C94.3795 27.7113 93.6523 27.9174 92.7795 28.0871C91.9311 28.281 90.9978 28.378 89.9796 28.378C88.7917 28.378 87.7251 28.184 86.7796 27.7962C85.8584 27.4083 85.119 26.7416 84.5615 25.7962C84.0281 24.8265 83.7615 23.4932 83.7615 21.7962V12.2327H81.1797V9.94183L84.1615 8.12366L85.7251 3.94189H89.1796V8.16003H94.7432V12.2327H89.1796V21.7962C89.1796 22.5477 89.3978 23.1174 89.8341 23.5053C90.2705 23.8689 90.8402 24.0508 91.5432 24.0508Z" fill="black" fill-opacity="0.8"/>
  <path d="M72.3717 7.79688C74.505 7.79688 76.2141 8.37869 77.4989 9.54231C78.7838 10.6817 79.4262 12.5241 79.4262 15.0695V28.0148H74.0081V16.415C74.0081 14.9847 73.7535 13.918 73.2444 13.215C72.7353 12.4877 71.9232 12.1241 70.8081 12.1241C69.1596 12.1241 68.0324 12.6938 67.4263 13.8332C66.8203 14.9483 66.5172 16.5604 66.5172 18.6695V28.0148H61.0991V8.16051H65.2445L65.9718 10.7059H66.2627C66.6991 10.0272 67.2324 9.4817 67.8627 9.06959C68.493 8.63323 69.196 8.31808 69.9717 8.12414C70.7475 7.90596 71.5475 7.79688 72.3717 7.79688Z" fill="black" fill-opacity="0.8"/>
  <path d="M58.3271 8.16064V28.015H54.1817L53.4544 25.4695H53.1635C52.7514 26.1483 52.218 26.7059 51.5635 27.1422C50.9332 27.5544 50.2302 27.8574 49.4544 28.0513C48.6787 28.2695 47.8787 28.3786 47.0545 28.3786C45.6484 28.3786 44.4121 28.124 43.3454 27.615C42.2788 27.1059 41.4545 26.318 40.8727 25.2514C40.2909 24.1847 40 22.8029 40 21.1059V8.16064H45.4181V19.7605C45.4181 21.1666 45.6727 22.2332 46.1817 22.9605C46.6908 23.6877 47.5029 24.0514 48.6181 24.0514C49.7332 24.0514 50.5938 23.7968 51.1999 23.2877C51.8302 22.7787 52.2665 22.0393 52.5089 21.0696C52.7756 20.0999 52.9089 18.912 52.9089 17.506V8.16064H58.3271Z" fill="black" fill-opacity="0.8"/>
  </svg>
  