<svg width="16" height="15" viewBox="0 0 16 15" fill="none" xmlns="http://www.w3.org/2000/svg">
  <path fill-rule="evenodd" clip-rule="evenodd" d="M11.3337 6.05176C11.3337 8.62909 9.24432 10.7184 6.66699 10.7184C4.08966 10.7184 2.00033 8.62909 2.00033 6.05176C2.00033 3.47443 4.08966 1.38509 6.66699 1.38509C9.24432 1.38509 11.3337 3.47443 11.3337 6.05176ZM10.4121 10.7397C9.38569 11.5608 8.08368 12.0518 6.66699 12.0518C3.35328 12.0518 0.666992 9.36547 0.666992 6.05176C0.666992 2.73805 3.35328 0.0517578 6.66699 0.0517578C9.9807 0.0517578 12.667 2.73805 12.667 6.05176C12.667 7.46842 12.176 8.77042 11.3549 9.79686L15.231 13.6729L14.2882 14.6157L10.4121 10.7397Z" fill="#323232" fill-opacity="0.5"/>
  </svg>
  