<svg width="22" height="22" viewBox="0 0 22 22" fill="none" xmlns="http://www.w3.org/2000/svg">
  <path fill-rule="evenodd" clip-rule="evenodd" d="M16 9.07715C16 12.9431 12.866 16.0771 9 16.0771C5.13401 16.0771 2 12.9431 2 9.07715C2 5.21115 5.13401 2.07715 9 2.07715C12.866 2.07715 16 5.21115 16 9.07715ZM14.6172 16.1095C13.0776 17.3408 11.1248 18.0771 9 18.0771C4.02944 18.0771 0 14.0477 0 9.07715C0 4.10659 4.02944 0.0771484 9 0.0771484C13.9706 0.0771484 18 4.10659 18 9.07715C18 11.2024 17.2634 13.1556 16.0315 14.6954L21.8455 20.5094L20.4313 21.9236L14.6172 16.1095Z" fill="#323232" fill-opacity="0.5"/>
  </svg>
  