<svg xmlns="http://www.w3.org/2000/svg" width="22" height="22" viewBox="0 0 22 22" fill="none">
    <path fill-rule="evenodd" clip-rule="evenodd" d="M16 9C16 12.866 12.866 16 9 16C5.13401 16 2 12.866 2 9C2 5.13401 5.13401 2 9 2C12.866 2 16 5.13401 16 9ZM14.6178 16.0318C13.0781 17.2635 11.1251 18 9 18C4.02944 18 0 13.9706 0 9C0 4.02944 4.02944 0 9 0C13.9706 0 18 4.02944 18 9C18 11.125 17.2636 13.0779 16.032 14.6176L21.8459 20.4315L20.4316 21.8457L14.6178 16.0318Z" fill="#323232" fill-opacity="0.5"/>
  </svg>